<svg xmlns="http://www.w3.org/2000/svg" width="80" height="80" viewBox="0 0 80 80" fill="none">
  <!-- 大星星 -->
  <path d="M40 12 L43.5 28 L60 28 L47 37.5 L51.5 54 L40 44.5 L28.5 54 L33 37.5 L20 28 L36.5 28 Z" fill="#f9a8d4" opacity="0.9"/>
  <!-- 小星星左 -->
  <path d="M18 20 L19.2 24.8 L24 24.8 L20.2 27.6 L21.8 32.4 L18 29.6 L14.2 32.4 L15.8 27.6 L12 24.8 L16.8 24.8 Z" fill="#fbcfe8" opacity="0.7"/>
  <!-- 小星星右 -->
  <path d="M62 44 L63 47.8 L67 47.8 L63.8 50.2 L65 54 L62 51.6 L59 54 L60.2 50.2 L57 47.8 L61 47.8 Z" fill="#fbcfe8" opacity="0.7"/>
</svg>
